<?xml version="1.0" encoding="UTF-8"?>
<svg version="1.1" viewBox="0 0 1388 1192" width="347" height="298" xmlns="http://www.w3.org/2000/svg">
<path transform="translate(329,84)" d="m0 0h772l8 6 17 16 26 24 15 14 10 9 15 14 16 16 7 8 9 10 7 9 10 13 10 15 12 19 14 27 9 19 11 29 7 24 6 25 5 32 1 13v349l-2 12-5 13-6 11-9 11-9 9-14 9-14 6-11 3-19 2h-185l4 13 16 64 18 71 18 73 7 28v3l-2 1h-772l-6-1 4-16 17-69 17-67 18-73 6-24-1-3h-186l-16-2-14-4-16-8-14-11-8-9-9-14-5-11-4-15-1-9v-321l2-31 7-43 10-36 13-35 7-16 10-19 8-14 14-22 16-21 13-16 14-15 24-24 8-7 5-5h2v-2l8-7 26-24 3-3h2l1-3 8-7 12-11zm28 45-17 16-13 12-15 14-10 9-15 14-4 3v2l-4 2-20 20-7 8-11 13-14 19-16 26-14 27-10 25-9 27-2 9 19-3h1040l13 2 6 1-1-7-9-29-10-24-12-24-13-22-14-20-13-16-9-10-7-8-16-16-8-7-16-15-24-22-13-12-15-14zm-159 294-10 3-8 5-5 4-7 11-2 5-1 6v309l3 10 6 9 9 8 12 5 5 1h201l4-13 8-32-1-5-11-6-11-9-7-7-9-14-6-14-2-10-1-11v-10l4-19 5-11 6-10 9-10 10-9 14-8 13-4 13-2h552l14 2 12 4 13 7 9 7 8 8 7 10 7 14 4 17v24l-4 15-8 16-8 11-7 7-10 7-11 6 2 11 9 36 1 2h200l10-2 12-6 7-7 6-12 2-11v-302l-3-13-7-10-9-8-10-4-4-1zm246 223-9 2-10 7-6 9-2 7v9l3 9 9 10 8 4 8 2h540l12-3 8-6 6-8 3-12-1-8-5-10-7-7-10-4-5-1zm22 111-3 9-18 73-32 128-21 83v4h647l-11-45-63-252z" fill="#FEFEFE"/>
</svg>
