<?xml version="1.0" encoding="UTF-8"?>
<svg version="1.1" viewBox="0 0 1852 2048" width="475" height="525" xmlns="http://www.w3.org/2000/svg">
<path transform="translate(755,67)" d="m0 0h39l18 3 25 6 25 10 15 8 13 9 10 9 11 11 9 13 7 11 5 4 3 1h140l9 2 5 3 4 7 1 3 2 30 1 2 201 1 25 3 25 7 19 8 17 9 17 12 13 11 15 15 11 14 7 10 11 19 10 25 5 19 3 24 1 172 1 10 4-1 7-8 11-14 10-11 9-11 16-16 14-10 17-8 14-4h30l15 4 16 9 13 11 8 7 10 9 11 9 11 10 5 5 8 9 6 9 6 16 2 11v18l-3 16-6 16-9 16-9 12-9 11-8 10-11 12-7 8-10 11-9 11-13 15-9 10-9 11-10 11-9 11-9 10-9 11-11 12-9 11-15 16-9 11-9 10-9 11-7 7-9 11-11 12-5 6-1 5v464h224l9 3 6 5 4 6 1 4v519l-1 17-4 7-6 5-5 2-27 1h-1032l-8-3-7-7-3-11-1-40-4-2-95-1h-248l-33-2-22-3-14-3-24-9-21-11-16-11-14-12-15-15-9-11-10-15-8-14-10-24-8-32-1-8v-1348l3-18 5-19 8-20 11-20 8-12 8-10 3-4h2l2-4 11-11 11-9 14-10 15-9 16-8 21-7 18-4 24-2 194-1 4-1 1-3v-24l3-9 6-7 7-3h143l7-1 7-10 6-11 9-11 13-13 14-10 10-6 21-10 18-6 21-5z" fill="#010001"/>
<path transform="translate(246,334)" d="m0 0h207l1 1 1 42 2 9 7 8 7 2h607l8-3 6-7 2-5 1-46 2-1h203l13 4 11 7 8 10 4 7 2 12v347l-9 11-11 12-9 11-10 11-9 11-11 12-9 11-8 9-9 11-13 14-9 11-13 14-9 11-12 14-4 4h-550l-10 5-5 10-1 6 3 9 5 5 6 5 6 1 509 1v3l-8 7-7 9-4 17-10 65-2 5h-477l-9 2-7 5-4 9-1 5 3 10 5 5 7 5 442 1 34 1 1 2-6 40-1 8v11l3 6 8 7 5 2h7l31-9 39-12 83-25 18-6 10-5 9-10 7-9 3-3h3v304l-2 1h-690l-10 4-5 5-3 8-1 351-1 1h-180l-1-1-1-153-2-25-5-15-8-15-11-12-9-8-14-8-14-5-9-2-11-1-149-1-1-1v-1130l3-12 6-10 8-8 8-5z" fill="#FBFBFB"/>
<path transform="translate(671,1424)" d="m0 0h163l1 2v113l1 19 3 6 9 7 5 1h117l8-3 7-8 3-10 1-127h149l15 1v481l-1 1h-262l-129-1h-90l-1-1v-407z" fill="#C3996C"/>
<path transform="translate(1196,1424)" d="m0 0h164l1 130 2 8 6 5v2l5 2 3 1 48 1h47l25-1 8-4 6-7 2-5 1-7v-125h165l-1 479-3 2-9 1h-470z" fill="#BC8253"/>
<path transform="translate(266,241)" d="m0 0h187l1 1v50l-2 1-210 1-12 2-15 6-11 7-12 11-9 12-7 12-5 14-2 17v1152l1 7 10 11 7 8 14 15 12 12 7 8 18 18 7 8 10 10 7 8 15 15 7 8 14 14 7 8 14 14 7 8 14 15 8 8 7 8 13 13 7 8 21 21 7 8 9 8 6 3 8 1h88l113 1 1 1v48h-368l-21-2-19-4-18-7-15-8-11-8-12-10v-2l-4-2-11-12-7-10-7-11-6-10-9-24-3-15-2-12-1-45 1-1264 1-19 3-18 5-18 8-18 4-7 2-5 3-3h2l2-6 11-13 7-8 14-11 10-7 10-6 26-10 18-4z" fill="#6DBFFA"/>
<path transform="translate(761,111)" d="m0 0h34l24 4 6 3 17 5 11 6 14 10v2l4 2 7 7 9 14 3 7 2 9 7 9 8 3 146 1v159l-3 3h-552l-1-1v-161l144-1 10-2 10-20 3-8 6-10 9-10h2l1-3 14-9 4-3 7-3 13-5h5v-2l18-4z" fill="#3A98D1"/>
<path transform="translate(317,507)" d="m0 0h222l12 8 3 5 1 5v16l5-4 11-3 7 1 8 4 5 6 3 10-2 10-9 10-10 9-14 11-3 4-1 150-4 9-7 6-8 2h-219l-9-2-6-5-4-7-1-5v-223l6-10 9-6z" fill="#010001"/>
<path transform="translate(321,1198)" d="m0 0h168l53 1 9 6 3 6 1 5 1 15 4-3 10-3 9 1 8 5 4 5 2 5 1 7-3 9-7 8-15 13-12 9-1 4-1 149-5 10-6 5-3 1-15 1h-208l-9-2-8-7-4-10v-223l5-9 8-6 2-1z" fill="#010001"/>
<path transform="translate(313,853)" d="m0 0h226l9 5 5 5 2 8 1 16 3-4 16-4 10 5 6 7 3 10-2 10-6 7-11 9-9 8-8 6-2 5-1 149-5 10-7 5-4 1-172 1h-37l-18-1-6-3-6-7-3-9v-221l3-8 7-7z" fill="#010001"/>
<path transform="translate(1104,240)" d="m0 0 182 1 22 2 22 5 19 8 13 7 12 9 14 12 10 10 14 19 6 10 2 7 2-1 2 8 2 5 2 9 4 15 1 139v107l-7 8-12 14-9 11-16 17-5 5-3 2v-259l-1-41-4-18-7-16-7-10-9-10-10-8-16-8-12-4-6-1-212-1-2-2v-50z" fill="#6CBEF9"/>
<path transform="translate(642,690)" d="m0 0h580l9 4 5 5 4 8v8l-4 8-9 9-7 1h-575l-7-3-8-7-4-10 1-7 4-8 7-6z" fill="#010001"/>
<path transform="translate(645,1232)" d="m0 0h382l198 1 6 3 5 6 3 6v10l-5 10-7 6-6 1h-575l-7-2-8-7-4-8-1-4 3-10 4-6 8-5z" fill="#010001"/>
<path transform="translate(662,541)" d="m0 0h550l13 1 8 4 5 8 1 3v12l-6 10-5 4-3 1-11 1-571-1-5-3-8-7-3-7v-8l4-10 6-5 4-2z" fill="#010001"/>
<path transform="translate(341,896)" d="m0 0h170l1 4-1 24-12 11-11 9-15 13-13 11-11 9-9 8-5-1-13-11-11-9-17-14-10-6-9-2-9 3-7 6-4 8v9l4 8 10 10 13 10 15 12 11 9 13 11 14 8h6l11-6 13-10 15-13 11-9 13-12 5-5h3l-1 87-129 1h-41z" fill="#68AE69"/>
<path transform="translate(341,1242)" d="m0 0h171l-1 26-2 4-11 9-13 11-11 9-10 9-14 11-9 8-4 1-8-6-16-13-13-11-14-10-6-2h-8l-8 4-7 8-2 5v8l5 10 10 9 17 13 13 11 11 9 15 12 8 4h8l12-7 17-14 14-12 13-11 11-10h3l-1 85-1 1h-82l-87 1z" fill="#69AE6A"/>
<path transform="translate(341,551)" d="m0 0 171 1v21l-2 7-28 24-11 9-13 11-11 9-8 7-7-4-9-8-14-11-12-10-12-8-7-2-8 1-9 6-6 10v9l4 8 12 11 17 13 14 12 11 9 13 10 11 5 5-1 11-6 16-13 11-9 10-9 11-9 9-9h2l-1 86-135 1h-35z" fill="#68AE69"/>
<path transform="translate(1430,967)" d="m0 0h2l1 74 1 110v229l-1 1h-51l-1-1v-354l3-7 15-15 9-11 10-11 9-11z" fill="#6CBEF9"/>
<path transform="translate(1450,655)" d="m0 0 4 2 24 16 9 7 5 3 1 4-9 10-7 8-9 10-12 14-11 12-9 11-12 14-10 11-9 11-11 12-7 8-11 13-9 10-9 11-13 14-9 11-11 13-10 11-9 11-13 14-9 11-9 10-9 11-10 11-7 8-11 12-3 4-4-1-7-7-17-12-12-8 1-5 9-10 9-11 9-10 9-11 9-10 9-11 7-7 9-11 9-10 9-11 10-11 9-11 13-14 9-11 10-11 9-11 10-11 9-11 10-11 9-11 11-12 9-11 11-12 7-8 10-11 9-11 8-10z" fill="#FCC145"/>
<path transform="translate(1526,715)" d="m0 0 4 2 11 12 9 9 10 13 2 2-15 15-9 11-12 13-9 11-11 12-9 11-9 10-7 8-18 20-9 11-11 13-12 14-12 13-9 10-9 11-12 14-7 8-9 10-7 8-11 13-9 11-12 13-9 11-15 16-8 9-3-3-7-9-11-12-9-9-5-3 2-4 8-8 9-11 12-14 9-11 13-14 7-8 12-14 9-10 9-11 13-15 10-11 9-11 10-11 7-8 12-14 9-10 7-8 12-14 13-15 9-11 10-11 7-8 24-28 9-10 5-6z" fill="#FCC145"/>
<path transform="translate(241,1547)" d="m0 0 125 1 9 2 10 6 8 8 6 10 2 9 1 132-4-2-14-15-14-14-7-8-12-12-7-8-12-12-7-8-8-8-7-8-7-7-7-8-19-19-7-8-26-26z" fill="#9C9D9D"/>
<path transform="translate(1592,516)" d="m0 0h11l10 5 11 9 10 9 11 9 15 13 10 9 5 6 4 11v13l-7 21-7 11-18 22-7 9h-4l-14-15-24-24-8-7-11-9-14-11-8-7-12-8-5-4-9-6-2-5 7-9 13-15 9-10 14-10z" fill="#F95D59"/>
<path transform="translate(167,365)" d="m0 0h1l-1 1162h-2l-3-8-2-26-1-41v-165l-1-254v-242l1-180v-152l2-50 1-21 2-18z" fill="#6ECBFE"/>
<path transform="translate(878,1424)" d="m0 0h66l1 1v102l-1 2h-65l-1-1z" fill="#FAC045"/>
<path transform="translate(1404,1424)" d="m0 0h66l1 1v26l-1 77-1 1h-64l-1-1z" fill="#FBC145"/>
<path transform="translate(1174,994)" d="m0 0 5 2 19 13 14 11 10 9 16 15 9 9 4 3v2l4 2 7 7 4 3-10 4-55 17-38 11-4-1 6-32 9-71z" fill="#9C9D9D"/>
<path transform="translate(725,1800)" d="m0 0h79l14 1 9 7 5 8 1 3v8l-6 10-7 6-5 2h-94l-9-5-6-7-2-6v-7l4-10 8-7z" fill="#010001"/>
<path transform="translate(1252,1800)" d="m0 0h41l51 1 9 7 6 10v9l-4 8-5 5-8 5-20 1-74-1-9-4-5-5-3-6-1-10 3-8 7-8 6-3z" fill="#010001"/>
<path transform="translate(671,1424)" d="m0 0h163l1 2v113l1 19 3 6 7 6v2l-5-2-4-2-5-11-3-19-1-26v-18l-1-20v-20l-1-15-1-5-10-2h-110l-17 1-6 1-2 5-1 2-1 23-1 73v259l-1 6 1 21v67l2 10 1 3 3 1-5 1h-8v-407z" fill="#D3A672"/>
<path transform="translate(1496,601)" d="m0 0 4 2 15 9 17 12 14 11 14 12 16 15 10 10 7 8 7 7 5 7v7l-12 16-5-1-16-17-7-8-16-15-10-9-11-9-14-11-19-14-11-8-4-5 14-13z" fill="#9C9D9D"/>
<path transform="translate(115,396)" d="m0 0h1l1 1141 1 47 1 22v18l1 50 1 28 2 18 2 13 6 16 5 10 6 11 9 12 11 13 13 13 8 6 3 1v2l12 6 8 5 18 6 18 4 7 1 53 1h268l54 1v-29l1-17 2-2 1 1v48h-368l-21-2-19-4-18-7-15-8-11-8-12-10v-2l-4-2-11-12-7-10-7-11-6-10-9-24-3-15-2-12-1-45z" fill="#3A98D1"/>
<path transform="translate(179,1550)" d="m0 0 4 1 7 7 8 7 15 15 7 8 18 18 7 8 10 10 7 8 15 15 7 8 14 14 7 8 14 14 7 8 14 15 8 8 7 8 13 13 7 8 21 21 7 8v1h-6l-13-9-8-8-8-7-7-8-25-25-8-10-9-10-7-8-2-4h-2v-2h-2l-7-8-14-14v-2l-4-2-8-8-7-8-4-4v-2l-3-1-8-10-9-10-16-14v-2h-2l-7-8-12-12-7-8-13-14-6-9z" fill="#6BC8FB"/>
<path transform="translate(1427,976)" d="m0 0 4 1 1 18v131l-1 1v37l1 4v130h-1l-1 34-2 4-1-3-1-26v-193l2-31v-15l-1-6v-17l2-3 1-9h-2l-3-23-3-15-1-4-4-2 2-5 6-7z" fill="#6ECBFE"/>
<path transform="translate(1104,240)" d="m0 0 182 1 22 2 22 5 19 8 13 7 4 4-5-2-8-4-6-2-10-4-10-3-1-1-20-3-4-1-28-1h-32l-69-1h-61l-13 1-1 12v31l6 1h133l-37-1-6-1v-1h88v2l-10 1 37 2v1h-212l-2-2v-50z" fill="#3A98D1"/>
<path transform="translate(989,1424)" d="m0 0h149l15 1-1 37h-1l-1-21-2-4-2-3-10-3h-112l-18 1-7 1v2h-3l-2 55-1 11 1 3-1 6v19l1 2-2 6-1 17-1 4h-2z" fill="#D1A372"/>
<path transform="translate(266,241)" d="m0 0h187l1 1v50l-2 1-218 1v-1l6-1 60-1 150-1 1-4 1-42-24 1h-35l-47 1h-107l-3-2 13-2z" fill="#3A98D1"/>
<path transform="translate(1382,1070)" d="m0 0 3 1 1 42 1 101v52l-1 48v54l1 8-5 2-1-77z" fill="#6FCCFF"/>
<path transform="translate(589,1793)" d="m0 0h37l-2 5-3 5-7-1-7-3h-41l-15 1h-15l-43 1-38-1-16-1h-10l-5-2v-3z" fill="#6ECBFE"/>
<path transform="translate(750,1903)" d="m0 0h45l61 1h250l42 1v1l-39 1h-219l-129-1h-90v-1l31-1z" fill="#B28968"/>
<path transform="translate(481,1834)" d="m0 0h56l18 2v2l2 1-8 1h-131l-5-2v-1l11-1 17-1h15z" fill="#6ECBFE"/>
<path transform="translate(852,1572)" d="m0 0h123v2h-3v2l-2 1-16 2h-63l-13-1-23-1-5-2v-2z" fill="#D1A170"/>
<path transform="translate(1196,1424)" d="m0 0h160l3 1v119h-1l-1-44-1-63-4-6v-2h-2v-2h-146l-2 6-3 5-1 51h-1z" fill="#CC9C6D"/>
<path transform="translate(1427,593)" d="m0 0h2l3 11v10l-8 8-9 11-12 14-14 15-5 5-3 2 1-23h1l1 8 14-7h2l2-5 1-2h2v-2h2v-2h2l2-6 6-8 4-5 4-13z" fill="#6BC8FB"/>
<path transform="translate(1384,483)" d="m0 0h1l1 29v66l-1 40v13l-3 1v-134l1-2z" fill="#6ECBFE"/>
<path transform="translate(173,280)" d="m0 0 1 2-6 7h-2l-2 4-11 12-5 5-9 15-6 9-4 5-2 1 1-8 6-12 4-9 3-3h4l1-5 20-20z" fill="#69C4F9"/>
<path transform="translate(1514,1424)" d="m0 0h25l97 1v1h-109v2l-4 1-3 2h-4v56h-1z" fill="#C49A6D"/>
<path transform="translate(399,1586)" d="m0 0h1l1 124 1 5-4-2-7-8 1-3 3 1 1-9 2-8z" fill="#F7F7F7"/>
<path transform="translate(1423,350)" d="m0 0 3 4 3 10v13l1 15v21l-2 3-2-11-1-17v-17l-3-14z" fill="#6FCCFF"/>
<path transform="translate(202,255)" d="m0 0 3 1 1 2-10 4-10 6-13 10-8 7-18 18-2 5h-2l2-6 11-13 7-8 14-11 10-7 10-6z" fill="#3A98D1"/>
<path transform="translate(725,1798)" d="m0 0h84l11 2 4 3v2l-6-3-14-1-81-1z" fill="#D1A474"/>
<path transform="translate(1432,1041)" d="m0 0h1v126l-3-3v-37l1-1z" fill="#5CB2EC"/>
<path transform="translate(1417,1573)" d="m0 0h64l13 1v1l-15 1h-72l-25-1v-1z" fill="#C8A075"/>
<path transform="translate(671,1424)" d="m0 0 161 1v1l-156 1-2 2-1 18h-1z" fill="#FCC147"/>
<path transform="translate(1327,1424)" d="m0 0h29l3 1v119h-1l-1-41v-71l-4-5v-2h-26z" fill="#CFA06E"/>
<path transform="translate(1067,1904)" d="m0 0h39l42 1v1l-39 1h-39l-4-2z" fill="#B58761"/>
<path transform="translate(1398,303)" d="m0 0 5 2 5 5 9 16v2h2l1 6-4-1-2-5-3-1-4-7-3-8-6-7z" fill="#6DC9FD"/>
<path transform="translate(620,1828)" d="m0 0 3 1 1 12-11-1-4-3 5-4h3v-2h2z" fill="#6ECBFE"/>
<path transform="translate(1428,1358)" d="m0 0h2l1 13 2 1v5h-2l-1 2h-6l-1-6z" fill="#6FCCFF"/>
<path transform="translate(1430,967)" d="m0 0h2v28h-1l-1-17-1-2-4 1-2 4-11 10v-3l12-13z" fill="#56AFE7"/>
<path transform="translate(1351,1426)" d="m0 0 3 1v2l3 1 1 2v68h-1l-1-63-4-6v-2h-2z" fill="#C49A6D"/>
<path transform="translate(1202,1426)" d="m0 0 2 1-2 6-3 5-1 51h-1l-1-62 1 4z" fill="#CCA376"/>
<path transform="translate(1197,1826)" d="m0 0h1l1 74 1 5h-3z" fill="#C79C6E"/>
<path transform="translate(1675,579)" d="m0 0 2 3 2 5v13l-7 21-1-3 5-19v-12z" fill="#BC8253"/>
<path transform="translate(1429,364)" d="m0 0h1l1 10v39l-2-1v-25l-1-16v-6z" fill="#6EC0FB"/>
<path transform="translate(1514,1424)" d="m0 0 5 1-2 4-1 58h-1z" fill="#CFA372"/>
<path transform="translate(1379,282)" d="m0 0 6 4 6 6v2h2l3 6-4-2-6-5v-2h-2v-2h-2v-3h-2z" fill="#6FCCFF"/>
<path transform="translate(280,1586)" d="m0 0 7 6 14 15 1 2-4-2-18-18z" fill="#D7D7D7"/>
<path transform="translate(245,1550)" d="m0 0 9 2-2 4 2 4 4 2 1 3-4-2-10-10z" fill="#E2E3E3"/>
<path transform="translate(1382,1070)" d="m0 0 3 1v15l-3 2z" fill="#6ECAFE"/>
<path transform="translate(341,896)" d="m0 0 38 1v1l-34 1-4 1z" fill="#A0A1A1"/>
<path transform="translate(1405,305)" d="m0 0 5 5 8 13v5l-3-4-9-16z" fill="#3A98D1"/>
<path transform="translate(1425,350)" d="m0 0 3 1 2 6v7l-3-3-3-10z" fill="#63B8F2"/>
<path transform="translate(126,341)" d="m0 0 3 1-2 10-3 2-1-7z" fill="#6ECBFE"/>
<path transform="translate(833,1828)" d="m0 0 1 2-3 7-4 4-2-1 2-4 4-7z" fill="#CBA277"/>
<path transform="translate(1423,976)" d="m0 0 2 1-2 4-11 10v-3z" fill="#5AB1EB"/>
<path transform="translate(703,1817)" d="m0 0h1l2 18-4-5v-12z" fill="#CF9F6F"/>
<path transform="translate(836,1561)" d="m0 0 7 6 3 3v2l-5-2-4-2-2-5z" fill="#CDA172"/>
<path transform="translate(988,1559)" d="m0 0 1 3-7 7-2 3-3-1 8-10z" fill="#D0A06F"/>
<path transform="translate(1202,1426)" d="m0 0 2 1-2 6-3 5h-1v-7z" fill="#C49A6D"/>
<path transform="translate(1197,1425)" d="m0 0h12v1l-7 1v2l-5 2z" fill="#E6B361"/>
<path transform="translate(1197,1882)" d="m0 0h1l1 18 1 5h-3z" fill="#C59B6D"/>
<path transform="translate(169,357)" d="m0 0h1l-1 18h-1l-1-14z" fill="#51AEE5"/>
</svg>
