<?xml version="1.0" encoding="UTF-8"?>
<svg version="1.1" viewBox="0 0 1682 2048" width="433" height="527" xmlns="http://www.w3.org/2000/svg">
<path transform="translate(1357)" d="m0 0h115l-6 11-4 10-1 3v10l4 9 8 9 5 5 4 5 9 16 1 6-5 4-20 8-10 7-6 5-7 10-5 13-2 13v10l3 12 4 5 29 7 7 4 3 6v9l-4 16-5 10-10 13-8 16-5 14-7 21-5 13v12l4 18-7 8-6 6-1 3v10l4 16v6l-7 8-9 11-6 10-11 20-7 10-9 10-8 8-10 8-10 10-9 13-7 14-4 16-1 7v15l4 20 5 15 7 11 6 8 7 3 17 5 19 8 19 10 19 8 31 12 27 12 5 4 4 9v20l-2 14-1 16v38l2 16 5 16v12l-4 9-8 10-14 8-18 10-23 13-16 9-17 12-11 9-10 9-11 10-16 11-29 17-17 11-14 10-4 3-5 1-5-3-4-11-3-21-1-28-3-15-6-12-16-16-6-10-1-3v-12l4-14 13-36 7-24 2-12-1-9-5-8-5-3-15-5-17-4-9-4-9-7-8-9-4-9-2-10v-10l3-15 7-16 7-11 9-11 11-13 5-8v-8l-2-5-4-2-14-9-13-13-8-13-5-12-3-11-1-7-1-17v-27l-3-16-7-14-9-9-32-16-11-9-9-11-8-16-5-12-7-20-7-13-9-10-8-6-16-8-15-5-13-2-2 10v6l17 5 15 4 9 4 6 7 4 10 8 24 9 20 9 14 8 10 13 13 14 9 15 7 13 5 4 5 1 18 1 39 3 23 5 16 8 15 11 11 11 8 4 5 1 5-4 6-14 13-8 11-5 15-2 9v24l5 35 6 12 9 8 15 6 29 5 6 4 2 4-1 9-11 26-10 26-6 24-1 5v11l3 8 6 7 8 7 9 10 5 12 3 15 4 38v24l-4 9-5 8-9 7-11 8-10 9-7 10-4 13 1 13 7 28-1 10-6 8-5 6-4 17v5l5 2 34 4 29 3 12 3 9 5 9 8 8 16 6 16 11 19 14 21 11 18 13 28 9 10 9 7 22 14 8 6 4 5-1 4-9 7-17 9-27 16-15 8-26 11-8 7-2 9-1 16-5 19-8 16-7 12-8 11-10 14-8 10-21 6-19 8-15 9-12 9-14 13-7 8-7 7-6 7-11 9-13 8-18 10-10 8-3 1v2l-5 5-6 7-7 11-9 19-4 13-1 5v7l5 12 8 8 12 9 4 5 1 7-8 11-7 7-8 7-11 11-8 7-21 21-7 8-12 12-13 9-16 8-16 5-19 3-13 1-39 1-21 2-17 4-17 6-7 3h-5l-5-10-6-21-1-11 1-24 3-10 6-10 4-5h2v-2l14-9 42-22 24-14 22-13 21-14 8-7 6-9 3-9 1-7 3-57v-40l-3-8-1-3-4-2-19-9-13-6-10-6-7-6-8-12-4-15-1-8-1-48-4-16-6-10-9-8-17-8-22-7-9-8-3-10v-24l3-13 6-9 5-4 6-2 11-1 27-1 28-3 34-5 8-4 6-7 6-18 6-20 11-27 19-40 13-26 5-6-1-11-1-6-5 3-12 12-11 14-8 12-3-3-6-18-3-12-2-20 3-19 7-20v-12l-5-8-8-7-16-9-8-8-5-10v-18l6-19v-13l-4-9-6-7-16-8-22-10-15-9-8-3-12 3-9 6-8 9-8 11-3 2-6-1-7-10-16-29-15-29-12-24-9-10-2-1-107-1-6-3-4-5v-10l4-13 6-15 11-22 13-19 11-13 8-11 4-9v-14l-3-10-10-23-9-17-16-26-13-22-8-18-5-15-4-19-6-10-9-9-11-9-9-8-4-7 1-5 4-5 21-11 17-11 11-9 14-12 24-22 13-12 11-9 32-26 11-9 14-12 13-11 15-12 20-14 14-9h2l1-21 3-14 7-17 9-13 11-11 14-9 11-5 11-3 9-1h30l8-6 15-14 10-19 7-9 8-7 14-8 17-7 18-6 9-4 11-12 4-2h8l9 4 15 9 16 7 19 6 4 1h20l12-6 7-7 10-15 10-13 12-14 11-12 9-11 9-12 5-7 12 1h13l13-5 18-10 8-5 18-8 8-3zm-421 257-12 6-6 7-4 9-1 13 3 11 9 10 10 5 5 1h11l11-4 8-7 5-10 1-12-2-10-5-9-7-6-10-4zm183 777-12 6-7 8-3 6-1 5v12l4 10 6 7 12 6 4 1h10l10-4 8-6 4-5 4-10v-11l-3-9-7-9-10-6-4-1z" fill="#661215"/>
<path transform="translate(446,400)" d="m0 0h11l18 3 13 5 9 5 9 7 12 12 9 14 5 11 2 8 1 11v27l-2 17-5 16 8-4 20-14 17-11 19-10h11l9 6 14 12 10 10 8 11 4 8 3 10 1 15 3 7 10 12 8 13 10 19 12 27 9 17 9 13 2 4v7l-8 10-11 12-13 17-8 13-8 16-5 15-5 24-1 13 2 10 6 10 9 7 10 6 2 2v21l-3 17-5 12-6 11-5 12-2 7-1 8v18l5 25 2 9v17l-5 8-8 4-13 3-29 2-19 1-13 2-9 5-6 8-2 6v8l3 10 6 12 11 16 20 20 7 11 4 10 3 15 2 19v7l-2 4-4 3-12-2-8-1h-21l-16 4-14 7-16 12-5 4-6 1-9-2-14-7-10-9-6-10-9-32-6-14-9-12-10-9-15-11-13-12-10-10-3-4h-2l-6 12v6l7 9 9 9 10 8 13 9 4 3v2l3 1 7 10 5 11 4 15 5 17 8 13 7 8 10 7 16 8 18 6 9-1 7-3 7-7 7-10 12-6 15-3h25l14 3 10 5 6 7 1 3v8l-7 17-8 21-7 13-9 10-14 8-8 4-5 4-7 10-9 19-6 5-10-3-15-8-11-4-5-1h-12l-6 3-4 6-5 17-4 6-16 8-15 9-10 8-4 4h-2v2l-7 6-7 8-9 11-3 5-1 4-1 36-7-6-11-10-8-7-7-7-7-10-6-14-3-13-6-9-11-7-14-5-3-1h-20l-21 6h-19l-11-4-17-9-13-8-22-12-25-11-43-16-32-13-15-7-6-5-2-6v-18l2-9 5-6 13-7 6-5 12-22 9-12 7-8 8-7 15-13 14-11 8-3h10l23 4 15 1 10-3 6-4 4-6 4-13 1-8 1-61 5-13 2-3v-7l-6-28-5-15-8-23-8-18-11-18-10-14-11-14-8-11-4-8-1-10 5-10 11-10 14-11 8-10 8-14 7-20 5-26 1-6v-9l-8-21-1-5v-13l3-11 4-8 9-10 10-7 17-8 37-14 60-20 20-9 9-5-1-5-12-27-9-25-8-26-7-31-2-17v-23l4-19 9-19 10-13 8-8 14-9 12-5 14-3zm-2 55-10 4-8 7-4 8-2 9 1 11 6 12 8 7 9 3h13l10-3 5-3 6-8 4-9 1-9-3-12-6-9-9-6-6-2zm-115 494-10 4-8 8-5 11-1 3v11l3 9 7 9 6 4 7 2h12l10-3 8-6 4-5 3-6 1-5v-9l-3-10-6-9-9-6-6-2z" fill="#661115"/>
<path transform="translate(1357)" d="m0 0h115l-6 11-4 10-1 3v10l4 9 8 9 5 5 4 5 9 16 1 6-5 4-20 8-10 7-6 5-7 10-5 13-2 13v10l3 12 4 5 29 7 7 4 3 6v9l-4 16-5 10-10 13-8 16-5 14-7 21-5 13v12l4 18-7 8-6 6-1 3v10l4 16v6l-7 8-9 11-6 10-11 20-7 10-9 10-8 8-10 8-10 10-9 13-7 14-4 16-1 7v15l4 20 5 15 7 11 6 8 7 3 17 5 19 8 19 10 19 8 31 12 27 12 5 4 4 9v20l-2 14-1 16v38l2 16 5 16v12l-4 9-8 10-14 8-18 10-23 13-16 9-17 12-11 9-10 9-11 10-16 11-29 17-17 11-14 10-4 3-5 1-5-3-4-11-3-21-1-28-3-15-6-12-16-16-6-10-1-3v-12l4-14 13-36 7-24 2-12-1-9-5-8-5-3-15-5-17-4-9-4-9-7-8-9-4-9-2-10v-10l3-15 7-16 7-11 9-11 11-13 5-8v-8l-2-5-4-2-14-9-13-13-8-13-5-12-3-11-1-7-1-17v-27l-3-16-7-14-9-9-32-16-11-9-9-11-8-16-5-12-7-20-7-13-9-10-8-6-16-8-15-5-13-2-2 10v6l17 5 15 4 9 4 1 2-6-2-13-4-22-6-7 31-12 37-13 31-18 38-14 28-10 18-10 17-4-5-12-19-14-24-8-15-11-23-10-23-10-28-7-23-6-31-2-17-11 6-19 13-17 13-6 5-2-1 9-8 16-12 24-16 5-2 1-21 3-14 7-17 9-13 11-11 14-9 11-5 11-3 9-1h30l8-6 15-14 10-19 7-9 8-7 14-8 17-7 18-6 9-4 11-12 4-2h8l9 4 15 9 16 7 19 6 4 1h20l12-6 7-7 10-15 10-13 12-14 11-12 9-11 9-12 5-7 12 1h13l13-5 18-10 8-5 18-8 8-3zm-421 257-12 6-6 7-4 9-1 13 3 11 9 10 10 5 5 1h11l11-4 8-7 5-10 1-12-2-10-5-9-7-6-10-4z" fill="#B99C79"/>
<path transform="translate(765,826)" d="m0 0h8l7 2 8 9 12 25 11 23 10 19 12 21 10 14 4 5 4 2 6-1 8-7 12-13 7-8 10-8 9-1 8 6 6 5 19 8 9 8 3 7v7l-6 19v19l8 16 11 12 17 11 8 6 1 4-5 11-5 19-1 8v11l5 25 6 20 4 11 2 9v13l-4 18-9 25-11 28-4 4-15 2-68 5-12 2-10 4-11 8-7 8-8 14-4 11-1 6v19l4 13 6 8 7 6 18 7 15 6 15 8 5 4 5 9 2 17v23l2 24 3 15 5 12 6 10 9 10 11 7 14 6 15 6 4 4 2 12v44l-1 17-3 14-7 13-9 10-12 9-20 12-18 10-29 15-18 10-29 17-3 2h-8l-31-9-56-12-24-7-19-8-18-10-13-10-12-12-11-16-7-15-8-16-8-9-8-4-7-2h-18l-13 2h-14l-11-4-9-7-7-8-9-15-13-15-11-11-8-7-11-10-14-7-4-1h-13l-20 4-4 1-1-2 3-26 5-41 4-12 7-11 10-10 15-10 15-9 15-10 6-5 6-10 4-11 4-4 6 1 8 4 17 12 9 4 11 1 6-4 4-5 8-20 5-8 9-10 9-7 14-8 10-9 6-10 8-19 7-16 1-4v-13l-4-35-5-29-7-25-6-15-8-16-7-10-11-12-7-8-6-12-2-7v-8l4-6 5-2 8-1 39-2 25-3 13-4 6-3 4-5v-12l-4-29-6-22-1-6v-13l2-9 9-19 6-21 5-29 4-11 8-9 10-5 15-2zm-37 274-10 4-9 8-4 8-2 9 1 12 5 10 9 8 11 4h8l12-4 8-7 5-8 2-5 1-9-3-12-5-8-7-6-7-3-5-1z" fill="#661215"/>
<path transform="translate(1681,729)" d="m0 0h1v838l-19 2-10 3-13 7-7 8-9 16-3 5-7 4-22 3-11 5-8 1-6-3-8-8-8-7-11-10-17-11-11-5-10-4h-7l-5-3-3-6 1-11 1-7-2-12-5-10-11-12-7-8-1-3 3-6 9-7 11-5 7-3h18l37-4 23-5 30-9 12-5 9-6 6-10 3-14v-10l-3-20-5-16-8-16-7-11-6-7-7-4-7 1-14 14-6 3-9 1-16-4-30-11-10-4-13-4-27-11-20-8-6-4-1-9 2-8v-9l-4-10-8-8-15-11-14-11-12-11-6-9-7-23-10-15-8-10-11-17-12-21-11-21-10-11-13-8-13-4-35-4-17-3-7-1 6-8 8-11 4-10v-12l-5-10-10-12-1-4 7-8 14-14 14-11 15-12 19-13 21-14 29-17 19-12 15-10 21-16 14-11 10-9 16-12 15-9 14-8 12-6 16-9h5l4-4 15-11 8-9 3-6v-11l-5-12-4-8 1-5 4-5 11-4 11-2h15l57 3h16l12-5 9-7 7-8 4-5z" fill="#B99C79"/>
<path transform="translate(1045,1107)" d="m0 0h3l3 12 6 21 8 24 8 20 11 24 14 28 14 24 13 20 2 2 10-18 14-26 15-30 13-28 11-27 12-36 4-9 12 1 57 6 12 3 9 5 9 8 8 16 6 16 11 19 14 21 11 18 13 28 9 10 9 7 22 14 8 6 4 5-1 4-9 7-17 9-27 16-15 8-26 11-8 7-2 9-1 16-5 19-8 16-7 12-8 11-10 14-8 10-21 6-19 8-15 9-12 9-14 13-7 8-7 7-6 7-11 9-13 8-18 10-10 8-3 1v2l-5 5-6 7-7 11-9 19-4 13-1 5v7l5 12 8 8 12 9 4 5 1 7-8 11-7 7-8 7-11 11-8 7-21 21-7 8-12 12-13 9-16 8-16 5-19 3-13 1-39 1-21 2-17 4-17 6-7 3h-5l-5-10-6-21-1-11 1-24 3-10 6-10 4-5h2v-2l14-9 42-22 24-14 22-13 21-14 8-7 6-9 3-9 1-7 3-57v-40l-3-8-1-3-4-2-19-9-13-6-10-6-7-6-8-12-4-15-1-8-1-48-4-16-6-10-9-8-17-8-22-7-9-8-3-10v-24l3-13 6-9 5-4 6-2 11-1 27-1 28-3 34-5 8-4 6-7 6-18 6-20 11-27 19-40 13-26z" fill="#661215"/>
<path transform="translate(1409,1333)" d="m0 0h11l17 2 14 5 25 12 15 8 8 4 6 4 20 6 18 4 8 1h22l11-3h7l7 4 5 8 4 15 3 19v7l-4 6-11 7-17 7-18 5-25 5-35 3-6 2-13 2-16 7-10 8-8 9-4 9v8l4 8 9 10 8 9 4 11v8l-3 10v12l4 7 8 5 21 7 6 4 9 4 12 7 12 11 14 15 12 6 13 1 14-3 17-7h6l4 4 3 15 5 36 4 21 3 17 2 15v29l-4 31-5 29-3 10-4 4-9 1-36-14-14-5-8-1-9 4-8 9-3 4-5-1-12-12-12-18-5-5-9-11-7-6-10-5-12-2h-138l-15 1-27 10-3 1h-10l-5-4-4-8-9-26-9-15-9-9-8-5-14-4h-110l-2-1 1-4 8-10 19-19 8-11 1-7-3-6-12-14-7-11-5-11-1-5v-16l3-10 6-9 7-8 13-9 18-11 13-10 10-9 8-7 18-18 11-9 9-8 15-10 16-7 25-6 9-6 6-10 8-15 12-17 8-16 7-21 4-19 2-5 7-7 20-12 16-8 15-5z" fill="#B99C7A"/>
<path transform="translate(325,895)" d="m0 0h22l14 3 12 5 14 9 12 11 10 14 5 11 4 13 2 18v12l-3 21-6 25-8 24 2 4v3l-3-1-6 12v6l7 9 9 9 10 8 13 9 4 3v2l3 1 7 10 5 11 4 15 5 17 8 13 7 8 10 7 16 8 18 6 9-1 7-3 7-7 7-10 12-6 15-3h25l14 3 10 5 6 7 1 3v8l-7 17-8 21-7 13-9 10-14 8-8 4-5 4-7 10-9 19-6 5-10-3-15-8-11-4-5-1h-12l-6 3-4 6-5 17-4 6-16 8-15 9-10 8-4 4h-2v2l-7 6-7 8-9 11-3 5-1 4-1 36-7-6-11-10-8-7-7-7-7-10-6-14-3-13-6-9-11-7-14-5-3-1h-20l-21 6h-19l-11-4-17-9-13-8-22-12-25-11-43-16-32-13-15-7-6-5-2-6v-18l2-9 5-6 13-7 6-5 12-22 9-12 7-8 8-7 15-13 14-11 8-3h10l23 4 15 1 10-3 6-4 4-6 4-13 1-8 1-61 5-13 2-3v-7l-6-28-4-12 1-3 2 3v-29l4-16 5-13 8-12 6-7 8-7 10-7 14-7 11-3zm4 54-10 4-8 8-5 11-1 3v11l3 9 7 9 6 4 7 2h12l10-3 8-6 4-5 3-6 1-5v-9l-3-10-6-9-9-6-6-2z" fill="#671216"/>
<path transform="translate(1477,115)" d="m0 0h11l13 4 16 9 14 11 10 9 7 7 11 14 8 14 4 11 6 31 8 26 9 19 8 12 10 10 12 6 13 3 45 2v407l-12 3-9 5-15 12-14 7-13 3h-24l-56-3-14-2-6-6v-16l5-16 4-16v-10l-4-16-7-12-7-7-13-8-36-16-20-9-16-8-22-10-17-6-12-6-9-8-6-11-3-12v-18l10-15 4-10 4-18 3-5 15-5 11-6 7-7 9-16 8-16 8-15 7-10 11-10 2-3-1-8-2-5v-12l12-24 1-3v-10l-6-16v-7l6-8h2l2-5 3-17 3-12 11-18 8-10 6-12 3-10 1-6v-24l-3-10-6-7-12-5-19-2-4-2-3-4 1-10 7-17 5-6z" fill="#B99C7A"/>
<path transform="translate(1496)" d="m0 0h180v2l6 3v281h-15l-21-3-15-4-9-6-8-9-7-14-8-24-6-32-2-14-5-16-6-10-8-10-11-9-14-10-18-12-9-7-7-7-5-10-1-3-2-23-4-13-4-6-3-3v-2l-4-2-9-7-1-5 9-14 6-8z" fill="#B99C7A"/>
<path transform="translate(446,400)" d="m0 0h11l18 3 13 5 9 5 9 7 12 12 9 14 5 11 2 8 1 11v27l-2 17-5 16 5-1-5 5-10 29-12 29-13 29-18 36-12 22-10 18-3 1-7-12-11-17-16-29-7-13-6 1 3-3-1-5-12-27-9-25-8-26-7-31-2-17v-23l4-19 9-19 10-13 8-8 14-9 12-5 14-3zm-2 55-10 4-8 7-4 8-2 9 1 11 6 12 8 7 9 3h13l10-3 5-3 6-8 4-9 1-9-3-12-6-9-9-6-6-2z" fill="#F99032"/>
<path transform="translate(325,895)" d="m0 0h22l14 3 12 5 14 9 12 11 10 14 5 11 4 13 2 18v12l-3 21-6 25-8 24 2 4v3l-3-1-6 12v6l3 4-1 2-5-5-11 25-19 39-12 22-13 24h-4l-7-10-12-20-12-21-12-23-11-25-11-29-7-23-3 1v-9l-6-28-4-12 1-3 2 3v-29l4-16 5-13 8-12 6-7 8-7 10-7 14-7 11-3zm4 54-10 4-8 8-5 11-1 3v11l3 9 7 9 6 4 7 2h12l10-3 8-6 4-5 3-6 1-5v-9l-3-10-6-9-9-6-6-2z" fill="#F99032"/>
<path transform="translate(728,1046)" d="m0 0h13l14 2 16 6 14 9 12 11 7 9 7 12 5 14 2 11v31l-4 21-12 39-12 30-9 20-14 29-8 17-13 23-11 20h-2l-12-20-8-13-13-23-13-26-12-28-10-27-8-28-5-24-2-23v-10l2-15 5-16 6-12 10-13 10-9 15-9 9-4 13-3zm0 54-10 4-9 8-4 8-2 9 1 12 5 10 9 8 11 4h8l12-4 8-7 5-8 2-5 1-9-3-12-5-8-7-6-7-3-5-1z" fill="#F99032"/>
<path transform="translate(1118,979)" d="m0 0h16l16 3 16 7 14 9 9 8 8 11 8 14 4 16 1 7v26l3 1-2 3-4 17v5l1 2-3 3-12 37-13 32-16 34-17 34-10 18-9 16h-3l-11-18-7-11-12-21-17-34-12-28-10-30-6-21-2-12h-2l-1-13-1-6-2-1h2l-1-9v-23l4-19 5-12 6-9 7-9 13-12 19-10 15-4zm1 55-12 6-7 8-3 6-1 5v12l4 10 6 7 12 6 4 1h10l10-4 8-6 4-5 4-10v-11l-3-9-7-9-10-6-4-1z" fill="#F99033"/>
<path transform="translate(930,206)" d="m0 0h29l13 3 16 7 11 8 5 5 8 9 7 10 7 12 2 6 1 14-2 12v23l-5 23-12 37-13 31-18 38-14 28-10 18-10 17-4-5-12-19-14-24-8-15-11-23-10-23-10-28-7-23-6-31-2-17-2-1 2-1 1-17 3-16 6-15 6-11 12-13 10-8 16-8 5-2zm6 51-12 6-6 7-4 9-1 13 3 11 9 10 10 5 5 1h11l11-4 8-7 5-10 1-12-2-10-5-9-7-6-10-4z" fill="#F99032"/>
<path transform="translate(1554,1847)" d="m0 0 10 1 20 6 20 8 8 5 3 4v8l-8 21-2 16 3 14 8 16 4 5 8 5 9 3 22 2 15 3 8 3v81h-182l1-11 1-28 2-17 4-11 7-9 7-8 1-4 2-18 4-13 13-30 4-14 1-8v-19l2-6z" fill="#BA9D7B"/>
<path transform="translate(1681,1589)" d="m0 0h1v357l-17-2-20-4-10-5-4-4-2-7v-13l4-16 7-30 4-27 2-17 3-18 6-26 1-7v-22l-7-38-4-21-4-33v-37l3-10 6-9 9-6 8-3z" fill="#BB9E7C"/>
<path transform="translate(845,678)" d="m0 0h15l6 3 4 4 2 4-1 8-1 5 7 10v9l-4 7-4 4-6 2h-18l-2-2v-52z" fill="#EFE9E2"/>
<path transform="translate(151,1233)" d="m0 0h8l10 4 6 7 2 5v11l-4 8-7 6-4 2h-13l-7-3-6-7-2-6v-9l3-9 8-7z" fill="#661115"/>
<path transform="translate(717,1407)" d="m0 0 8 2 6-2 8 1 8 4 5 7 1 3v11l-3 6-4 5-6 3h-17v18l-5 1-2-4v-53z" fill="#EDE6DE"/>
<path transform="translate(444,808)" d="m0 0 8 1 2-1h12l8 5 5 8 1 3v7l-3 8-8 7-10 2-9-1v18l-4 1-3-2v-55z" fill="#ECE5DD"/>
<path transform="translate(443,1242)" d="m0 0h8l6 1h4l1 2v55l-5 1-2-2v-17h-15l-6-3-5-6-3-6v-8l3-8 8-7z" fill="#EBE3DA"/>
<path transform="translate(345,1242)" d="m0 0 4 1 5 1 4-2 10 1 9 6 4 7v12l-4 7-7 6-2 1-10 1-6-1-1 18-5 1-1-1-1-37v-19z" fill="#ECE5DD"/>
<path transform="translate(1109,1300)" d="m0 0 5 1v19l9-1 9 2 6 5 4 6 1 4v7l-3 7-5 5-6 4-3 1h-10l-8-4-1-2v-53z" fill="#ECE5DD"/>
<path transform="translate(245,1242)" d="m0 0 9 1 8 5 5 7 1 4v7l-3 7-6 7-4 2h-15l-6-3-6-7-2-5v-9l5-9 5-4z" fill="#EBE4DB"/>
<path transform="translate(949,673)" d="m0 0h4l1 2v19h14l8 4 6 8 1 10-2 7-6 7-8 4h-12l-5-3-2-3v-53z" fill="#EFE9E2"/>
<path transform="translate(409,808)" d="m0 0h11l8 4 6 7 1 3v12l-6 9-6 4-12 1-8-3-5-5-4-7-1-8 5-10 6-5z" fill="#EEE8E0"/>
<path transform="translate(151,1227)" d="m0 0h8l10 3 6 4 6 7 3 9v10l-4 10-4 5-7 5-6 2h-15l-10-4-8-9-3-7-1-10 4-11 7-8 10-5zm0 6-7 3-7 6-3 9v9l3 8 6 6 6 2h13l8-5 5-6 2-5v-11l-4-8-6-5-8-3z" fill="#ECE5DC"/>
<path transform="translate(666,1407)" d="m0 0h7l6 4 5-1 7-3 9 1 5 3 3 7v29l-3 1-4-2v-24l-2-6-3-2-8 1-3 1-1 30-1 1h-5l-1-1v-25l-2-6-9-1-4 2-1 2-1 28-1 1h-6v-38l3-1 6 1z" fill="#EBE3DA"/>
<path transform="translate(403,1242)" d="m0 0h7l9 6 4 9-2 6-3 1h-24l3 8 5 3h11l6-1v5l-4 3-10 1-10-3-6-7-3-8 1-9 5-8 5-4z" fill="#EAE3D9"/>
<path transform="translate(318,1242)" d="m0 0h7l7 4 5 7v9l-3 2-24 1 1 7 5 2 2 1h11l5-1-1 6-3 2h-14l-8-4-5-8-1-2v-10l5-10 8-5z" fill="#EBE4DB"/>
<path transform="translate(526,1242)" d="m0 0 9 1 5 3 4 6v10l-3 2h-24l2 7 6 4h11l6-1-1 6-2 2-8 1-12-2-7-8-2-4v-12l4-8 6-5z" fill="#EBE3DA"/>
<path transform="translate(627,1407)" d="m0 0 8 1 6 3 4 5 2 5v5l-2 2-4 1h-23l5 10 5 2h10l6-1-1 5-2 2-13 1-6-2-8-7-3-7v-8l4-9 7-6z" fill="#EDE6DE"/>
<path transform="translate(896,693)" d="m0 0 8 2 5 4 2 4 1 21 2 8-1 1h-5l-4-1-5 2h-9l-7-6-1-2v-8l3-5 8-3 11-2-1-6-2-1h-11l-6 1-1-3 4-4z" fill="#EEE8E0"/>
<path transform="translate(996,694)" d="m0 0h11l6 3 3 4 1 3 1 19 1 10-4 1-3-2-5 1-2 1h-8l-5-3-4-6v-7l2-4 9-4 11-2-2-6-1-1h-11l-6 1 1-5z" fill="#EDE6DE"/>
<path transform="translate(1059,694)" d="m0 0h11l8 5 2 5 1 21 2 4v4l-3 1-4-3-5 2-2 1h-9l-6-4-3-4v-8l4-5 7-3 9-1 2-1-1-5-2-2h-10l-7 1 1-5z" fill="#EDE6DE"/>
<path transform="translate(912,593)" d="m0 0h8l7 4 3 4 1 4 1 21 1 6-5 1-5-1-2 1h-12l-5-4-3-6 2-7 4-4 16-4v-7l-3-1h-8l-7 2-1-4 4-4z" fill="#EDE6DE"/>
<path transform="translate(1019,593)" d="m0 0h8l6 3 5 6 1 4 1 20 1 6-4 1-5-2-3 2h-12l-6-5-2-4 1-7 5-5 16-3-1-7-3-2h-8l-7 2v-4l5-4z" fill="#EDE6DE"/>
<path transform="translate(1233,1320)" d="m0 0h13l5 3 3 4 1 3 1 21 3 7-1 1h-5l-4-2-6 3h-8l-6-4-2-4v-9l7-6 14-3-1-7-9-1-9 1 1-5z" fill="#ECE5DD"/>
<path transform="translate(495,808)" d="m0 0h8l8 4 2 4 1 22 3 6-1 3h-5l-5-1-7 2-8-1-5-6-1-2v-7l3-5 4-2 14-1v-6l-2-3-5-1-11 2-1-5z" fill="#EDE6DE"/>
<path transform="translate(819,1407)" d="m0 0 10 3 4 6 1 19 3 11-1 1-10-1-2 1h-12l-5-5-2-3v-7l4-5 10-3 7-1-1-7-7-2-10 2-1-4 6-4z" fill="#EDE6DE"/>
<path transform="translate(372,792)" d="m0 0 9 1 8 3 1 4-5 1-5-2h-10l-9 4-6 7-1 3v13l4 9 2 1v2l9 2h14l6-1v5l-3 3-4 1h-12l-10-3-8-6-5-8-2-8 1-11 4-8 5-5 4-3z" fill="#EBE3DA"/>
<path transform="translate(878,577)" d="m0 0 9 1 6 4v4l-9-2h-6l-5 4v7l4 4 12 5 7 8 1 7-2 7-7 6-3 1h-14l-6-3-2-2v-4l15 3 8-2 2-2v-9l-4-4-14-6-4-5-1-3v-7l3-5 7-6z" fill="#EDE6DE"/>
<path transform="translate(1017,1320)" d="m0 0 8 1 3-1h12l6 4 3 5v30l-5 1-2-2-1-27-2-4-8-1-6 2-1 2-1 28-2 2-5-1v-38z" fill="#E9E0D6"/>
<path transform="translate(472,1242)" d="m0 0 4 1 1 2 1 29 3 1h10l3-3 1-3 1-26 5-1 1 1 1 32-1 7h-24l-6-4-2-5v-30z" fill="#E8E0D5"/>
<path transform="translate(241,1249)" d="m0 0h11l6 4 3 6-1 9-4 6-4 2h-10l-6-4-3-5v-10l6-7z" fill="#661115"/>
<path transform="translate(409,814)" d="m0 0h10l5 3 4 5 1 6-2 7-5 5-3 1h-10l-6-4-3-8 1-7 6-7z" fill="#661115"/>
<path transform="translate(1150,1319)" d="m0 0 4 1 1 5 1 24 3 3 2 1h8l3-1 2-5 1-27 4-1 2 2v39l-5-1-2-1-6 2h-8l-6-3-5-5-1-3v-28z" fill="#EAE3D9"/>
<path transform="translate(954,593)" d="m0 0h9l6 4 4 5 1 12-1 19-5-1-1-1-1-25-2-5-2-1h-8l-5 3-1 4-1 26h-5l-2-5v-32l1-2 9 1z" fill="#EEE7E0"/>
<path transform="translate(536,808)" d="m0 0h10l6 3 3 4 1 4v27l-4 2-2-1-1-28-1-4-10-1-6 2-2 13v17l-1 1h-5l-1-1v-36l4-1 1 1 7-1z" fill="#EAE2D9"/>
<path transform="translate(731,1413)" d="m0 0 9 2 6 6v12l-4 6-7 3-10-1-2-4v-17l2-5z" fill="#661115"/>
<path transform="translate(452,814)" d="m0 0h13l6 5 2 6-1 9-5 6-2 1h-11l-4-4v-20z" fill="#661115"/>
<path transform="translate(359,1248)" d="m0 0 9 2 5 5 1 2v10l-4 7-4 2h-10l-4-3-1-3v-14l1-5z" fill="#661115"/>
<path transform="translate(1115,1326)" d="m0 0h14l6 7 1 3v7l-5 8-5 3-7 1-4-2-1-2v-24z" fill="#661115"/>
<path transform="translate(955,700)" d="m0 0h12l6 3 3 6v8l-3 6-6 4-9 1-3-1-1-4v-22z" fill="#661115"/>
<path transform="translate(444,1248)" d="m0 0 9 1 2 2v23l-2 2h-10l-6-3-3-4-1-3v-7l3-6 5-4z" fill="#661115"/>
<path transform="translate(280,1232)" d="m0 0 5 1 1 9h11l1 5-1 1-11 1v27h6l2 4-2 2h-7l-5-3-2-5-1-25-6-2v-4l7-2 1-8z" fill="#EAE2D8"/>
<path transform="translate(206,1242)" d="m0 0h7l7 3 1 6-6-1-2-1-10 1-5 3-3 7 1 8 4 5 4 2h14l2 1-1 5-2 1h-15l-8-4-6-9v-12l3-6 6-6z" fill="#E8E0D6"/>
<path transform="translate(988,584)" d="m0 0 5 1v8h12l1 5-13 1 1 27 7 1 1 5-2 1-9-1-4-4-1-4v-25h-7l-2-4 3-2h6l1-8z" fill="#EBE3DA"/>
<path transform="translate(1207,1319)" d="m0 0 9 1 4 1 1 5-5 1-4-1h-7l-7 4-2 4v11l3 5 6 3h16l-2 5-5 2h-10l-8-4-7-8-1-3v-11l4-7 6-5z" fill="#EAE3D9"/>
<path transform="translate(1064,1309)" d="m0 0 4 1 1 9 12 1-1 5-12 1 1 25 1 2 8 2-1 4-6 1-5-2-4-4-1-6v-16l1-6-8-1-1-4 1-1 7-1 2-9z" fill="#E9E1D7"/>
<path transform="translate(578,1392)" d="m0 0 5 1 1 48 24 1 1 4-1 1h-29l-2-2v-51z" fill="#E5DBCF"/>
<path transform="translate(446,400)" d="m0 0h11l18 3 13 5 9 5 9 7 12 12 9 14 5 11 2 8 1 11v27l-2 17-4 13h-1l1-9 3-29v-23l-2-11-6-15-10-14-9-10-3-2v-2l-5-2-13-7-16-5-5-1h-24l-19 5-3 2h-5l4-3 12-4z" fill="#D8C8B6"/>
<path transform="translate(850,706)" d="m0 0h12l6 3 2 5v7l-4 5-8 2h-7l-2-7v-10z" fill="#661115"/>
<path transform="translate(999,1304)" d="m0 0 6 1v54l-1 1h-5l-1-1v-53z" fill="#E8E0D5"/>
<path transform="translate(1042,694)" d="m0 0h6l-1 5-9 5-3 5-1 23-1 2-5-1-1-2v-35l5-1 2 2 4-1z" fill="#EBE4DB"/>
<path transform="translate(936,203)" d="m0 0h32l-1 2-5 1-11-1h-12l-15 2-16 6-13 8-12 11-8 11-7 15-4 15-1 7-1 17-3 1v2l-12 7-16 11-17 13-6 5-2-1 9-8 16-12 24-16 5-2 1-21 3-14 7-17 9-13 11-11 14-9 11-5 11-3z" fill="#FDFDFD"/>
<path transform="translate(939,693)" d="m0 0 4 2-1 3-10 6-2 2-1 7-1 20-5 1-2-2v-36l3-2 4 3 4-1z" fill="#F1ECE5"/>
<path transform="translate(796,1408)" d="m0 0h5l1 4-11 6-1 2-1 11v15l-1 1h-6v-38l10 1z" fill="#EBE4DB"/>
<path transform="translate(342,949)" d="m0 0 7 1 8 5 7 9 4 10 1 5v7l-4 10-6 8-12 7-5 1h-14l-10-4-9-8-5-10-1-4v-11l1-3h2v14l3 9 6 8 6 4 7 2h12l10-3 8-6 5-8 2-7v-9l-3-10-6-9-10-6z" fill="#D0BDA6"/>
<path transform="translate(1307,32)" d="m0 0 2 1-4 3-15 6-4 1h-10l-11-2-7 9-10 13-11 12-9 11-10 11-13 18-8 11-9 8-6 3-4-1 12-6 7-7 10-15 10-13 12-14 11-12 9-11 9-12 5-7 12 1h13l13-5z" fill="#FDFDFD"/>
<path transform="translate(1091,1319)" d="m0 0 4 1 1 1v37l-2 2-5-1v-38z" fill="#E6DDD1"/>
<path transform="translate(386,431)" d="m0 0v3l-8 14-5 12-3 13v25l2 19 5 26 8 27 7 20 1 6-2-2-12-36-6-22-5-26-1-10v-23l4-19 9-19z" fill="#D2C0AB"/>
<path transform="translate(764,1407)" d="m0 0h5l1 1v38l-1 1h-5l-1-1v-38z" fill="#E9E0D6"/>
<path transform="translate(1099,1047)" d="m0 0 2 1-3 6-1 5v12l4 10 5 6 12 6 4 1h10l10-4 8-6 4-6 1 3-4 6-10 7-6 3-12 1-9-3-9-5-7-8-4-8-1-4v-8l4-11z" fill="#D0BDA6"/>
<path transform="translate(919,267)" d="m0 0v3l-4 9-1 13 3 11 9 10 9 4 5 1h11l11-4 7-6 5-10 1-12v-8h2l2 7-1 9-3 10-2 3h-2l-2 4-8 6-8 3h-17l-14-7-7-9-3-9v-13l4-11z" fill="#FDFDFD"/>
<path transform="translate(850,684)" d="m0 0h9l5 3 1 7-4 5h-11l-1-7z" fill="#661115"/>
<path transform="translate(421,475)" d="m0 0 1 3-1 11 3 10 6 9 5 4 9 3h13l10-3 5-2 2-4 4-6 1 4-8 9-8 4-16 2-10-3-8-5-6-8-4-9-1-9 2-9z" fill="#C8B297"/>
<path transform="translate(1068,125)" d="m0 0 3 1-18 7-21 8-15 8-12 11-8 14-5 8-1-2 8-16 7-9 8-7 14-8 17-7 18-6z" fill="#FDFDFD"/>
<path transform="translate(895,715)" d="m0 0h9l1 6-4 5-5 2-6-1-2-3 1-6z" fill="#661115"/>
<path transform="translate(919,614)" d="m0 0h5v8l-4 5-6 1-5-3-1-5 3-4z" fill="#661115"/>
<path transform="translate(1064,715)" d="m0 0h7l3 2-1 6-4 4-6 1-5-3-1-5 4-4z" fill="#661115"/>
<path transform="translate(1e3 715)" d="m0 0h10l1 5-3 5-5 3-6-1-3-4 1-5z" fill="#661115"/>
<path transform="translate(1021,615)" d="m0 0h11v6l-4 6h-9l-3-3 1-6z" fill="#661115"/>
<path transform="translate(1241,1341)" d="m0 0h6l2 2-1 6-6 5h-6l-3-3v-6l4-3z" fill="#661115"/>
<path transform="translate(820,1429)" d="m0 0h6l1 1v7l-6 5h-6l-3-3-1-4 1-3z" fill="#661115"/>
<path transform="translate(319,1248)" d="m0 0 7 1 4 4v4l-2 1h-18l2-6 4-3z" fill="#661115"/>
<path transform="translate(526,1248)" d="m0 0h7l5 6v3l-6 1h-14l1-5 5-4z" fill="#661115"/>
<path transform="translate(403,1248)" d="m0 0 8 1 4 5v3l-3 1h-16l-1-3 5-6z" fill="#661115"/>
<path transform="translate(628,1413)" d="m0 0 7 1 4 4-1 5h-19l2-5 5-4z" fill="#661115"/>
<path transform="translate(500,829)" d="m0 0h6l1 1v6l-5 5-5 1-4-2-1-6 4-4z" fill="#661115"/>
<path transform="translate(532,470)" d="m0 0h2l1 6v27l-2 17-4 13h-1l1-9 3-29z" fill="#CBB69C"/>
<path transform="translate(762,1119)" d="m0 0h2l3 10v7l-5 12-6 8-6 5-10 3h-10v-1l14-3 8-4 7-8 4-9 1-9z" fill="#CEBAA2"/>
<path transform="translate(855,299)" d="m0 0 4 1-12 7-16 11-17 13-6 5-2-1 9-8 16-12z" fill="#E3D8CB"/>
<path transform="translate(703,1121)" d="m0 0h2l-1 14 2 9 6 9 8 6 2 2-5-1-8-7-6-8-2-5v-13z" fill="#CAB49B"/>
<path transform="translate(1028,288)" d="m0 0h1l-1 16 17 5 15 4 9 4 1 2-6-2-13-4-22-6-2 4-1-5v-14h2z" fill="#E0D4C6"/>
<path transform="translate(1087,109)" d="m0 0h8l9 4 15 9-3 1-18-10-6-2-6 1-8 7-4 5-2-1 11-12z" fill="#FDFDFD"/>
<path transform="translate(342,949)" d="m0 0 7 1 8 5 7 9 4 10-1 13-2 3v-14l-3-10-6-9-10-6z" fill="#CFBCA5"/>
<path transform="translate(249,994)" d="m0 0 4 4 2 4 4 22 1 4v9h-1l-6-28-4-12z" fill="#D3C2AD"/>
<path transform="translate(446,400)" d="m0 0h11l8 1v1l-26 1-19 5-3 2h-5l4-3 12-4z" fill="#D2BFA9"/>
<path transform="translate(939,255)" d="m0 0h11l11 4 8 5 2 6-5-5-10-6-4-1h-16l-10 5-2-1 8-5z" fill="#FDFDFD"/>
<path transform="translate(368,484)" d="m0 0h1l3 37-3-4-2-17v-15z" fill="#CAB49A"/>
<path transform="translate(463,402)" d="m0 0h7l14 4 13 7 7 5-2 1-10-6-8-4-16-5-5-1z" fill="#D9CAB8"/>
<path transform="translate(367,979)" d="m0 0h2v7l-4 10-6 8-5 2-1-2 7-6 4-8h2z" fill="#CCB79E"/>
<path transform="translate(504,794)" d="m0 0 5 1-2 4-8 4-4-1v-4z" fill="#E0D4C6"/>
<path transform="translate(975,278)" d="m0 0h2l2 7-1 9-3 10-3 3 1-6 2-11z" fill="#D7C7B3"/>
<path transform="translate(1209,1080)" d="m0 0 4 1-2 3-4 17v5l1 2-3 1-1-5 2-15z" fill="#C6AE92"/>
<path transform="translate(478,500)" d="m0 0 1 4-8 9-8 4-8 1-10-1v-1l17-2 8-4h2l2-4z" fill="#D9CAB8"/>
<path transform="translate(1099,1047)" d="m0 0 2 1-3 6-1 5v18l-3-3-1-4v-8l4-11z" fill="#CCB79F"/>
<path transform="translate(1246,1306)" d="m0 0 5 1-3 4-8 4-5-1 1-3z" fill="#E1D6C8"/>
<path transform="translate(352 1e3)" d="m0 0h2l-1 3-6 3-5 1h-14l-3-2 15-1 10-3z" fill="#D4C3AE"/>
<path transform="translate(502,419)" d="m0 0 4 1 12 12 5 7v2l-4-2-7-9-7-8z" fill="#CCB79E"/>
<path transform="translate(1097,1075)" d="m0 0 9 12 9 5-1 2-4-1-6-4-6-7-2-5z" fill="#D0BCA5"/>
<path transform="translate(901,680)" d="m0 0h4l-1 4-4 3-8 1 1-4z" fill="#DFD2C2"/>
<path transform="translate(765,1392)" d="m0 0 4 2 1 5-2 2-5-1-1-4z" fill="#E8DFD5"/>
<path transform="translate(410,410)" d="m0 0 2 1-18 14-4 4-2-1 10-10z" fill="#D8C9B6"/>
<path transform="translate(1154,1078)" d="m0 0 1 3-4 6-10 7-4 1-1-2 8-4 8-7z" fill="#D1BFA8"/>
<path transform="translate(1091,1304)" d="m0 0 4 1v7l-4 1-2-2v-5z" fill="#DED1C2"/>
<path transform="translate(306,994)" d="m0 0 4 2 5 7 6 4 7 2v1h-6l-9-6-6-7z" fill="#CDB9A0"/>
<path transform="translate(1207,1043)" d="m0 0 2 4 1 7v10h-1l-3-9v-10z" fill="#B99C79"/>
<path transform="translate(1028,288)" d="m0 0h1l-1 16 4 2-3 1-2 4-1-5v-14h2z" fill="#DBCCBB"/>
<path transform="translate(364,968)" d="m0 0h2l2 6-1 13-2 3v-14z" fill="#E1D5C7"/>
<path transform="translate(862,280)" d="m0 0h1v30h-1l-1-11-2-1 2-1z" fill="#B99C79"/>
<path transform="translate(749,1158)" d="m0 0 3 1-5 3-7 2h-10v-1l14-3z" fill="#CAB49A"/>
<path transform="translate(952,256)" d="m0 0 9 3 8 5 2 6-5-5-10-6-4-1z" fill="#EDE7DF"/>
<path transform="translate(401,1063)" d="m0 0 4 2v3l-3-1-4 9h-1l1-7 2-5z" fill="#DFD3C4"/>
<path transform="translate(367,979)" d="m0 0h2v7l-3 8-3 1 1-5h2z" fill="#C1A789"/>
<path transform="translate(706,1149)" d="m0 0h3l5 6 8 5-3 1-6-4-7-7z" fill="#C4AC8F"/>
<path transform="translate(1246,1306)" d="m0 0 5 1-3 4-5 1v-4z" fill="#D9CAB8"/>
</svg>
