<?xml version="1.0" encoding="UTF-8"?>
<svg version="1.1" viewBox="0 0 2048 2020" width="150" height="148" xmlns="http://www.w3.org/2000/svg">
<path transform="translate(1214,88)" d="m0 0h391l5 2 1 152h135l21 3 17 5 19 8 14 8 11 9 13 13 12 17 8 15 7 21 3 16 2 23v1271l-1 92-2 28-5 30-5 17-8 16-8 13-8 11-7 8-10 7-14 6-22 7-12 4-13 2-20 1h-679l-16-4-22-9-15-8-10-8-9-9-12-16-12-21-7-17-3-14-1-12-1-91v-1332l-1-6 4-13 7-12 10-15 11-18 7-9 7-7 15-10 12-7 14-6 17-5 14-2h135l4-1v-132l1-14 3-6zm330 53-275 1-1 41v61l133 1h146l1-1 1-83 1-14 2-6zm-475 165-17 2-11 4-11 7-9 11-6 13-1 4-1 16-1 1292v122l2 12 5 10 11 12 12 12 13 8 11 4 21 3 228 1h78l268-1 65-3 22-2 16-4 10-5 17-16 9-11 6-12 4-16 1-10v-1349l-1-48-4-17-7-14-6-7-14-9-14-5-9-2-10-1-39-1z" fill="#FEFEFE"/>
<path transform="translate(518,363)" d="m0 0h12l29 5 7 3 2 4-1 33-2 20-14 81-6 31-8 45-7 36-7 38-7 35-5 26-8 33h254l93 1 11 1 14 7 7 6 1 4-4 17-6 15-6 12-12 17-14 18-13 18-10 13-12 16-13 18-10 13-12 16-12 17-13 18-10 13-9 13-11 16-8 10-10 14-12 17-8 11-12 16-13 19-15 20-14 19-16 23-10 13-13 18-14 19-12 16-8 10-10 13-12 15-7 9-11 14-8 10-11 14-13 16-9 12-9 11-11 14-13 18-12 17-14 20-7 11-13 18-19 28-12 16-10 13-11 13-9 11-9 10-9 11-12 13-12 12-7 5-4-2-12-11-10-8-6-5-1-2v-8l7-35 8-32 19-63 16-52 19-63 17-56 22-73 15-48 13-44 11-35 9-30 4-14-31-1-68-1-149-4-36-2-9-2-8-5-5-6-2-6v-14l5-16 6-14 7-11 10-14 16-24 10-14 13-19 13-18 7-11 12-17 13-19 7-10 13-19 8-11 15-22 24-34 10-15 14-20 13-19 13-18 14-20 10-14 12-17 10-14 12-17 13-18 13-19 13-18 9-12 14-20 14-19 24-34 10-13 12-17 7-8zm-53 181-8 5-18 26-16 23-10 15-10 14-12 17-8 12-10 14-14 20-13 19-13 18-9 13-7 10-13 18-10 14-15 22-11 16-44 66-9 13-11 18-13 20v2l12 2 228 7 42 1 5 1 2 14v18l-2 14-6 26-15 49-12 39-12 38-12 39-17 56-16 52-9 28-7 27-2 16v7l6-2 8-6 7-8 12-15 24-34 10-13 10-14 7-10 12-16 11-14 13-18 12-16 14-18 11-15 13-18 11-14 12-16 10-14 8-11 13-17 11-15 12-17 14-18 20-28 24-32 14-20 14-18 13-18 12-17 16-21 13-19 9-14 10-17 8-14 1-3-16 1-96 1h-180l-41-1v-2l-8-7-7-6-2-6v-9l4-27 12-69 15-93 3-26v-19l-2-6z" fill="#FEFEFE"/>
<path transform="translate(1129,1103)" d="m0 0h599l17 2 5 4 6 10 1 16v245l-2 12-5 5-6 4-8 3-42 1h-353l-144 1h-49l-49-1-23-2-4-5-3-9-1-7v-253l4-10 7-11 3-3 8-1zm558 59-92 1-465 1v180h558l1-140 1-41z" fill="#FEFEFE"/>
<path transform="translate(1508,1467)" d="m0 0h49l58 1 66 2 47 3 12 3 7 4 6 7 4 10 1 84v168l-1 11-4 7-5 4-8 3-20 2h-639l-6-5-5-13-2-10-1-27v-46l1-178 1-14 3-5 5-2 27-2 21-1 139-3 109-1zm-300 59-77 1-1 1v64l1 123 555 1 3-1v-187l-32-1-310-1z" fill="#FEFEFE"/>
<path transform="translate(1691,729)" d="m0 0h31l7 2 10 9 11 12 6 8 1 2v223l-1 22-4 8-3 10-5 8-1 1h-666l-6-2-3-5-2-17v-51l1-202 3-7 16-16 7-3 496-1zm-562 64-1 2 1 185 67-1h286l207 1 1-1v-186z" fill="#FEFEFE"/>
<path transform="translate(1098,368)" d="m0 0h621l24 1 10 2 4 6v231l-1 35-2 13-4 6-3 3-9 2-16 1h-624l-21-2-5-5-4-10-1-6-1-26 1-209 1-30 2-7 5-4zm33 53-2 1v185h560v-185l-24-1z" fill="#FEFEFE"/>
</svg>
