<svg xmlns="http://www.w3.org/2000/svg" xmlns:xlink="http://www.w3.org/1999/xlink" version="1.1" width="256" height="256" viewBox="0 0 256 256" xml:space="preserve">

<defs>
</defs>
<g style="stroke: none; stroke-width: 0; stroke-dasharray: none; stroke-linecap: butt; stroke-linejoin: miter; stroke-miterlimit: 10; fill: none; fill-rule: nonzero; opacity: 1;" transform="translate(1.4065934065934016 1.4065934065934016) scale(2.81 2.81)" >
	<circle cx="15.514" cy="15.514" r="16.014" style="stroke: none; stroke-width: 1; stroke-dasharray: none; stroke-linecap: butt; stroke-linejoin: miter; stroke-miterlimit: 10; fill: rgb(65,169,239); fill-rule: nonzero; opacity: 1;" transform="  matrix(2.81 0 0 2.81 1.4065934065934016 1.4065934065934016) "/>
	<path d="M 23.765 12.804 c -0.584 0 -1.107 -0.336 -1.376 -0.854 c -0.053 -0.104 -0.11 -0.206 -0.168 -0.308 c -0.059 -0.102 -0.12 -0.202 -0.183 -0.3 c -0.315 -0.491 -0.344 -1.113 -0.052 -1.619 c 0.424 -0.735 0.172 -1.674 -0.562 -2.098 L 19.39 6.451 c -0.735 -0.424 -1.674 -0.172 -2.098 0.562 l 0 0.001 c -0.288 0.498 -0.83 0.792 -1.404 0.764 c -0.25 -0.012 -0.5 -0.012 -0.751 0 c -0.574 0.028 -1.114 -0.267 -1.401 -0.764 l 0 0 c -0.424 -0.735 -1.363 -0.986 -2.098 -0.562 L 9.604 7.626 C 8.87 8.05 8.618 8.989 9.042 9.723 l 0 0 c 0.287 0.497 0.272 1.113 -0.039 1.595 c -0.136 0.211 -0.261 0.428 -0.375 0.651 c -0.263 0.512 -0.788 0.834 -1.363 0.834 H 7.264 c -0.848 0 -1.536 0.688 -1.536 1.536 v 2.349 c 0 0.848 0.688 1.536 1.536 1.536 l 0 0 c 0.584 0 1.107 0.336 1.376 0.854 c 0.053 0.103 0.11 0.206 0.168 0.308 c 0.059 0.102 0.12 0.202 0.183 0.3 c 0.315 0.491 0.344 1.113 0.052 1.619 c -0.424 0.735 -0.172 1.674 0.562 2.098 l 2.034 1.174 c 0.735 0.424 1.674 0.172 2.098 -0.562 l 0 -0.001 c 0.288 -0.498 0.83 -0.792 1.404 -0.764 c 0.25 0.012 0.5 0.012 0.751 0 c 0.574 -0.028 1.114 0.267 1.401 0.764 l 0 0 c 0.424 0.735 1.363 0.986 2.098 0.562 l 2.034 -1.174 c 0.735 -0.424 0.986 -1.363 0.562 -2.098 l 0 0 c -0.287 -0.497 -0.272 -1.113 0.039 -1.595 c 0.136 -0.211 0.261 -0.428 0.375 -0.651 c 0.263 -0.512 0.788 -0.834 1.363 -0.834 h 0.001 c 0.848 0 1.536 -0.688 1.536 -1.536 v -2.349 C 25.3 13.491 24.613 12.804 23.765 12.804 z M 17.688 19.28 c -2.08 1.201 -4.74 0.488 -5.941 -1.592 c -1.201 -2.08 -0.488 -4.74 1.592 -5.941 s 4.74 -0.488 5.941 1.592 C 20.481 15.419 19.768 18.079 17.688 19.28 z" style="stroke: none; stroke-width: 1; stroke-dasharray: none; stroke-linecap: butt; stroke-linejoin: miter; stroke-miterlimit: 10; fill: rgb(254,254,254); fill-rule: nonzero; opacity: 1;" transform=" matrix(2.81 0 0 2.81 1.4065934065934016 1.4065934065934016) " stroke-linecap="round" />
</g>
</svg>