<?xml version="1.0" encoding="UTF-8"?>
<svg version="1.1" viewBox="0 0 1472 1244" width="368" height="311" xmlns="http://www.w3.org/2000/svg">
<path transform="translate(614,153)" d="m0 0h687l15 2 16 6 11 6 13 10 8 8 10 14 7 16 4 14 1 10v742l-2 15-6 17-7 13-8 10-6 7-13 10-16 8-13 4-10 2-15 1h-674l-1-1-1-57zm104 79-15 3-11 7-7 6-7 11-4 10-1 7v120l3 14 6 11 7 8 11 7 11 4 6 1h487l13-3 11-6 9-8 6-10 4-12 1-7v-118l-3-14-6-11-8-9-12-7-10-3-7-1zm-9 260-10 4-9 6-8 9-5 10-1 5v73l3 10 6 10 9 8 10 5 8 2h81l12-4 10-7 7-8 4-8 3-14v-63l-3-12-6-10-9-9-13-6-3-1zm208 0-12 5-10 8-7 10-3 9-1 5v68l3 11 5 9 5 6 9 6 9 4 5 1h82l11-4 9-6 7-7 7-14 1-7v-68l-4-13-8-11-9-7-14-5zm208 0-10 4-8 6-8 8-5 11-2 11v63l3 13 7 11 7 7 11 6 9 2h81l14-5 9-7 7-9 4-9 2-12v-60l-3-13-6-11-8-8-14-7-4-1zm-410 184-10 2-10 5-10 9-6 9-3 9v75l4 11 8 11 10 7 9 4 5 1h80l13-4 10-7 7-8 4-8 3-14v-62l-3-12-5-10-6-7-9-6-11-4-7-1zm210 0-12 2-10 5-10 9-6 10-3 11v69l4 13 5 8 8 8 12 6 8 2h79l13-4 9-6 7-7 6-12 2-8v-70l-4-12-6-9-9-8-10-5-11-2zm207 0-10 2-12 6-7 6-6 8-4 12-1 7v63l3 12 6 11 7 7 10 6 10 3h81l13-4 11-8 8-11 3-7 2-12v-60l-3-13-6-11-9-9-12-6-11-2zm-418 185-12 3-9 5-10 10-5 10-2 6v74l3 10 6 9 5 5 8 6 11 4 6 1h74l10-2 12-6 7-6 7-11 3-9 1-8v-62l-3-12-5-9-8-9-8-5-9-3-6-1zm209 0-10 2-10 5-10 9-6 10-3 11v69l4 13 6 9 9 8 10 5 10 2h74l11-2 10-5 10-9 6-10 3-12v-68l-4-13-6-9-7-7-12-6-10-2zm209 0-14 3-11 7-8 9-5 11-2 10v64l3 12 4 8 8 9 14 8 11 2h73l14-3 10-6 5-4 7-10 3-7 2-13v-58l-2-12-6-12-7-8-9-6-9-3-8-1z" fill="#FEFEFE"/>
<path transform="translate(317,66)" d="m0 0h187l15 2 15 5 10 5 10 7 10 9 9 10 9 15 6 17 2 11 1 14v908l-2 22-6 20-8 14-8 10-10 10-10 7-16 8-14 4-13 2-14 1h-160l-22-2-15-4-17-8-13-10-10-10-9-13-8-17-3-12-2-16v-919l3-20 5-15 8-14 8-10 10-10 13-9 12-6 17-5z" fill="#FEFEFE"/>
<path transform="translate(202,152)" d="m0 0 5 1 1 1v913l-1 1-19-1-16-4-12-5-13-8-12-11-8-9-8-13-5-12-3-9-2-16v-741l2-14 5-15 6-12 8-11 10-11 12-9 15-8 17-5z" fill="#FEFEFE"/>
</svg>
