<?xml version="1.0" encoding="UTF-8"?>
<svg version="1.1" viewBox="0 0 948 1060" width="237" height="265" xmlns="http://www.w3.org/2000/svg">
<path transform="translate(149,76)" d="m0 0h522l10 3 8 5 7 7 5 10 1 3 1 255v223l-1 318 72-1 7-3 4-5 2-5 1-348-17-8-10-7-11-11-7-12-5-15-2-12v-69l1-2h17l-1-28v-21l1-2h29l5 1v37l-1 13 36-1v-49l1-1h19l12 1 1 1v49h15l2 1v72l-2 14-7 16-9 13-8 7-16 9-10 5-1 2 1 6 1 333-2 17-5 12-7 9-8 7-13 6-16 2h-61l-7 1-4 12-6 10-8 7-13 4-20 1h-426l-77-1-11-4-8-6-7-10-3-10-1-561v-111l1-163 5-10 6-7 10-6z" fill="#4A8CDC"/>
<path transform="translate(467,76)" d="m0 0h80l1 1v382l-2 19-4 16-6 16-9 17-8 11-9 11-13 12-13 9-16 9-16 6-17 4-15 2h-19l-21-3-22-7-16-8-11-7-10-8-7-6-7-8-10-12-9-16-6-14-6-21-2-13-1-18v-373z" fill="#F6F6F6"/>
<path transform="translate(754,351)" d="m0 0h29l5 1v37l-1 13 36-1v-49l1-1h19l12 1 1 1v49h15l2 1v72l-2 14-7 16-9 13-8 7-16 9-10 5-1 2 1 6 1 333-2 17-5 12-7 9-8 7-13 6-16 2h-61l-7 1-4 12-6 10-8 7-13 4-20 1h-61v-1h9l-1-2v-415l2-26 4-21 7-23 7-17 10-19 9-14 9-12 9-10 12-13 11-10 10-8 8-6h5l1 83v128l-1 318 72-1 7-3 4-5 2-5 1-348-17-8-10-7-11-11-7-12-5-15-2-12v-69l1-2h17l-1-28v-21z" fill="#474A4D"/>
<path transform="translate(120,370)" d="m0 0 9 5 13 10 13 12 12 12 11 14 9 13 10 17 8 17 6 17 4 13 5 25 2 21v421h-73l-11-4-8-6-7-10-3-10z" fill="#474A4D"/>
<path transform="translate(398,643)" d="m0 0h25l14 3 12 5 12 7 13 11 9 12 8 16 4 14 1 5v23l-4 17-8 16-7 11-13 13-11 7-13 6-15 4-7 1h-14l-13-2-15-5-13-7-9-7-11-11-9-14-6-16-3-13v-25l4-15 8-16 6-8 9-10 11-9 16-8 13-4z" fill="#F6F6F6"/>
<path transform="translate(754,351)" d="m0 0h29l5 1v37l-1 13 36-1v-49l1-1h19l12 1 1 1v49h15l2 1v72l-2 14-7 16-9 13-8 7-16 9-12 6-22-1-9-1-17-8-10-7-11-11-7-12-5-15-2-12v-69l1-2h17l-1-28v-21z" fill="#B3B4B4"/>
<path transform="translate(347,213)" d="m0 0h80l-1 10-9 37-6 21h85l-2 5-13 18-15 22-14 20-11 16-10 14-12 17-11 16-7 10-11 16-9 13h-4v-10l6-31 8-49v-6h-26l-42-1 6-43 8-64 3-28 1-2z" fill="#FED462"/>
<path transform="translate(789,538)" d="m0 0 30 1 2 8 1 333-2 17-5 12-7 9-8 7-13 6-16 2h-61l-8 1v-34l72-1 7-3 4-5 2-5 1-337z" fill="#69737A"/>
<path transform="translate(325,848)" d="m0 0h171v68l-171 1-1-66z" fill="#F7F7F7"/>
<path transform="translate(392,679)" d="m0 0h1l1 48 34 1-1-22v-12l1-14 2-1 6 4 9 7 8 9 7 14 3 12v8l-4 15-7 12-10 10-14 7-13 3h-10l-13-3-11-6-9-8v-2h-2l-6-10-4-10-1-5v-17l4-13 6-9 10-10 11-7z" fill="#F0563B"/>
<path transform="translate(754,351)" d="m0 0h29l5 1v37l-1 13h-32l-2-28v-21z" fill="#6A747B"/>
<path transform="translate(824,351)" d="m0 0h19l12 1 1 1v41l-1 8h-31l-1-14v-36z" fill="#6A747B"/>
<path transform="translate(789,538)" d="m0 0 30 1v1l-17 1-4 2-1 8-2 14v53 4l-1 7 1 11v14l-1 6 1 2v17l-1 6v66l-1 6v20l-1 3 1 7v10 4l-1 8 1 6 1 15-2 7 2 1-1 7v7 4h-2v11l-2-1-1-317z" fill="#77787E"/>
<path transform="translate(601,524)" d="m0 0h1v11l-1 18v410l6 3v1h-7l-1-2v-415z" fill="#6A747B"/>
<path transform="translate(789,761)" d="m0 0h1v48h2l1 6 1 15-2 7 2 1-1 7v7 4h-2v11l-2-1z" fill="#75777E"/>
<path transform="translate(820,569)" d="m0 0h1v186h-1l-1-29-1-5h2l-1-5-1-9 1-7v-38z" fill="#79797F"/>
<path transform="translate(753,353)" d="m0 0h1l1 11 2 4 3 9v12l-3 12 30-1v2h-32l-2-28z" fill="#7E7E84"/>
</svg>
